<?xml version="1.0" encoding="utf-8"?>
<!-- Svg Vector Icons : http://www.onlinewebfonts.com/icon -->
<!DOCTYPE svg PUBLIC "-//W3C//DTD SVG 1.1//EN" "http://www.w3.org/Graphics/SVG/1.1/DTD/svg11.dtd">
<svg version="1.1" xmlns="http://www.w3.org/2000/svg" xmlns:xlink="http://www.w3.org/1999/xlink" x="0px" y="0px" viewBox="0 0 1000 1000" enable-background="new 0 0 1000 1000" xml:space="preserve">
<metadata> Svg Vector Icons : http://www.onlinewebfonts.com/icon </metadata>
<g><g transform="translate(0.000000,511.000000) scale(0.100000,-0.100000)"><path d="M2010.3,4681.4c-209.4-68.9-462.2-188.9-551.5-265.5c-155.8-132.8-311.5-487.7-342.1-789c-40.9-362.6-232.4-625.6-681.7-934.5C128.5,2483,72.3,2419.2,110.6,2319.6c20.4-56.2,309-56.2,497.9,0c240,71.5,561.7,214.5,801.7,357.5l232.4,137.9l201.7-38.3c217-43.4,247.7-66.4,224.7-166c-17.9-84.3-51.1-109.8-324.3-245.1c-291.1-143-737.9-457-985.6-692c-209.4-196.6-286-319.2-446.8-709.8c-120-291.1-140.4-536.2-76.6-947.3C281.7-295,348-461,514-693.3c204.3-286,487.7-505.6,1126-870.7c140.4-79.1,337-206.8,434.1-283.4c214.5-163.4,789-459.6,1072.4-554c112.3-38.3,365.1-104.7,561.7-148.1c196.6-43.4,360-79.1,362.6-81.7c2.5-5.1-53.6-173.6-122.6-375.4c-71.5-204.3-143-411.1-158.3-459.6c-15.3-48.5-40.9-97-56.2-107.2c-12.8-10.2-293.6-20.4-620.4-20.4c-480,0-612.8-7.6-689.4-40.8c-81.7-33.2-89.4-43.4-48.5-63.8c53.6-30.6,33.2-74.1-35.7-74.1c-63.8,0-201.7-68.9-201.7-99.6c0-12.8,89.4-30.6,199.2-40.8c257.9-23,589.8-81.7,771.1-140.4c79.2-25.5,176.2-40.8,219.6-35.8l74,10.2l-76.6-25.5c-40.9-15.3-178.7-43.4-303.8-63.8c-125.1-20.4-232.4-43.4-240-51.1c-30.6-28.1,58.7-89.4,132.8-89.4c43.4,0,120-20.4,168.5-45.9c68.9-33.2,86.8-56.2,81.7-99.6c-10.2-71.5-48.5-71.5,556.6,5.1c360,43.4,561.7,84.3,725.1,137.9c135.3,48.5,250.2,71.5,286,63.8c48.5-12.8,61.3-5.1,61.3,35.8c0,97,28.1,132.8,107.2,132.8c76.6,0,76.6,2.5,61.3,109.8c-23,143,25.5,572,74,691.9c23,53.6,66.4,194,99.6,314.1l56.2,217l291.1-2.6c160.9-2.6,298.8-10.2,311.5-17.9c46-30.6,674.1,46,847.7,102.1c99.6,33.2,232.3,68.9,296.2,79.1c255.3,38.3,837.5,166,942.2,201.7c186.4,66.4,275.8,137.9,416.2,326.8c148.1,199.1,199.2,237.4,658.8,505.5c321.7,186.4,497.9,255.3,666.4,255.3c84.3,0,278.3,61.3,278.3,86.8c0,7.7-109.8,35.8-242.6,66.4c-132.8,33.2-234.9,66.4-227.3,79.2c17.9,30.6,130.2,28.1,237.5-2.6l86.8-25.5l-74,79.2c-40.9,40.9-242.6,163.4-449.4,268.1l-375.3,188.9L8774-399.7C8628.4-129,8508.4-19.3,8002.9,289.7c-255.3,155.8-523.4,339.6-594.9,408.5c-89.4,84.3-232.4,171.1-446.8,275.8c-314.1,150.6-503,214.5-1555,526c-301.3,89.4-582.1,173.6-623,188.9c-109.8,43.4-497.9,99.6-909,130.2c-201.7,15.3-380.4,38.3-393.2,51.1c-17.9,17.9-15.3,53.6,7.7,109.8c17.9,43.4,48.5,201.7,68.9,349.8c17.9,148.1,51.1,337,74,421.3c79.2,319.2,28.1,847.7-104.7,1075c-91.9,158.3-485.1,566.8-658.8,686.8c-176.2,120-444.3,217-597.5,214.5C2204.3,4727.3,2086.9,4706.9,2010.3,4681.4z M4783.2-2730.9c-7.7-33.2-20.4-158.3-28.1-280.9c-17.9-255.3-56.2-403.4-181.3-684.3c-48.5-109.8-86.8-232.3-86.8-273.2v-74.1l-347.3,7.7c-191.5,2.5-354.9,10.2-360,17.9c-7.7,5.1,33.2,35.8,86.8,63.8c56.2,28.1,145.5,104.7,199.2,168.5c76.6,94.5,109.8,117.4,155.8,107.3c71.5-12.8,71.5-28.1,20.4,211.9c-43.4,209.4-38.3,270.7,46,579.6l58.7,211.9h224.7C4788.3-2674.7,4793.4-2677.3,4783.2-2730.9z"/></g></g>
</svg>